<svg xmlns="http://www.w3.org/2000/svg" width="451" height="451" fill="none" viewBox="0 0 451 451">
    <rect width="450.175" height="450.175" fill="#fff" rx="225.088" />
    <rect width="450.175" height="450.175" fill="url(#paint0_linear_19_9)" rx="225.088" />
    <rect width="450.175" height="450.175" fill="url(#paint1_linear_19_9)" rx="225.088" />
    <circle cx="225.079" cy="224.386" r="210" stroke="#fff" stroke-width="5" />
    <path fill="#fff" d="M333.781 143.188H115.219C110.569 143.188 106.812 146.511 106.812 150.625V187.812H342.188V150.625C342.188 146.511 338.431 143.188 333.781 143.188ZM106.812 299.375C106.812 303.489 110.569 306.812 115.219 306.812H333.781C338.431 306.812 342.188 303.489 342.188 299.375V208.266H106.812V299.375ZM258.913 256.609C258.913 255.587 259.859 254.75 261.015 254.75H304.359C305.515 254.75 306.461 255.587 306.461 256.609V273.344C306.461 274.366 305.515 275.203 304.359 275.203H261.015C259.859 275.203 258.913 274.366 258.913 273.344V256.609Z" />
    <rect width="449.271" height="449.271" x=".452" y=".452" stroke="#000" stroke-opacity=".1" stroke-width=".904" rx="224.636" />
    <defs>
        <linearGradient id="paint0_linear_19_9" x1="-184.854" x2="29.931" y1="356.513" y2="-177.904" gradientUnits="userSpaceOnUse">
            <stop stop-color="#3177E0" />
            <stop offset=".991" stop-color="#3FA3EB" />
        </linearGradient>
        <linearGradient id="paint1_linear_19_9" x1="-42.073" x2="227.572" y1="377.6" y2="-303.484" gradientUnits="userSpaceOnUse">
            <stop stop-color="#3138E0" />
            <stop offset="1" stop-color="#EF39FF" />
        </linearGradient>
    </defs>
</svg>