<svg width="451" height="451" viewBox="0 0 451 451" fill="none" xmlns="http://www.w3.org/2000/svg">
<rect width="450.175" height="450.175" rx="225.088" fill="white"/>
<rect width="450.175" height="450.175" rx="225.088" fill="url(#paint0_linear_11_7)"/>
<rect width="450.175" height="450.175" rx="225.088" fill="url(#paint1_linear_11_7)"/>
<path fill-rule="evenodd" clip-rule="evenodd" d="M239.812 201.065C268.99 217.911 306.299 207.914 323.144 178.736C339.99 149.559 329.993 112.25 300.815 95.4043C271.638 78.5587 234.329 88.5556 217.483 117.733C200.638 146.91 210.635 184.22 239.812 201.065ZM176.602 177.124C178.792 173.331 184.489 173.698 186.519 177.578C195.521 194.785 209.353 209.725 227.415 220.153C245.477 230.581 265.332 235.09 284.734 234.283C289.11 234.101 292.276 238.851 290.086 242.643L232.638 342.146C231.019 344.951 228.195 346.851 224.987 347.294L158.903 357.327C157.405 357.554 156.308 355.948 157.066 354.635L191.594 294.831C199.83 297.754 209.233 294.485 213.76 286.645C218.863 277.807 217.45 266.303 205.557 259.436C193.663 252.569 183.827 257.579 178.724 266.417C174.24 274.183 176.034 283.851 182.531 289.545L147.683 349.903C146.93 351.207 145.007 351.073 144.442 349.678L118.575 285.856C117.323 282.84 117.546 279.413 119.178 276.585L176.602 177.124Z" fill="white"/>
<circle cx="225.079" cy="224.386" r="210" stroke="white" stroke-width="5"/>
<rect x="0.451983" y="0.451983" width="449.271" height="449.271" rx="224.636" stroke="black" stroke-opacity="0.1" stroke-width="0.903966"/>
<defs>
<linearGradient id="paint0_linear_11_7" x1="-184.854" y1="356.513" x2="29.9314" y2="-177.904" gradientUnits="userSpaceOnUse">
<stop stop-color="#3177E0"/>
<stop offset="0.990913" stop-color="#3FA3EB"/>
</linearGradient>
<linearGradient id="paint1_linear_11_7" x1="-42.0732" y1="377.6" x2="227.572" y2="-303.484" gradientUnits="userSpaceOnUse">
<stop stop-color="#3138E0"/>
<stop offset="1" stop-color="#EF39FF"/>
</linearGradient>
</defs>
</svg>
