<svg xmlns="http://www.w3.org/2000/svg" width="561" height="188" fill="none" viewBox="0 0 561 188"><path fill="url(#paint0_linear_14_110)" fill-rule="evenodd" d="M35.0356 67.6025C52.4522 67.6025 66.5712 53.4835 66.5712 36.0669C66.5712 18.6502 52.4522 4.53125 35.0356 4.53125C17.6189 4.53125 3.49993 18.6502 3.49993 36.0669C3.49993 53.4835 17.6189 67.6025 35.0356 67.6025ZM0.548828 73.2223C0.548828 70.9583 3.19398 69.6502 5.10588 70.8627C13.5833 76.2392 23.6377 79.3524 34.4192 79.3524C45.2008 79.3524 55.2552 76.2392 63.7326 70.8627C65.6445 69.6502 68.2896 70.9583 68.2896 73.2223V132.618C68.2896 134.292 67.5166 135.872 66.195 136.9L40.6214 157.339C39.4375 158.285 37.6847 157.442 37.6847 155.926V122.044C42.1273 121.224 45.4925 117.33 45.4925 112.65C45.4925 107.374 41.8866 102.589 34.7868 102.589C27.6871 102.589 24.5787 107.374 24.5787 112.65C24.5787 117.286 27.8806 121.15 32.2609 122.02V156.261C32.2609 157.766 30.5287 158.612 29.3415 157.687L2.67515 136.899C1.33485 135.873 0.548828 134.281 0.548828 132.593V73.2223Z" clip-rule="evenodd"/><path fill="#fff" d="M130.451 67.2832C138.601 67.2832 145.088 69.9445 149.912 75.2671C154.818 80.5065 157.272 87.7418 157.272 96.9731V137.641H136.065V99.8423C136.065 95.1851 134.859 91.5674 132.447 88.9893C130.035 86.4112 126.792 85.1221 122.717 85.1221C118.642 85.1221 115.398 86.4112 112.987 88.9893C110.575 91.5674 109.369 95.1851 109.369 99.8423V137.641H88.0371V68.0317H109.369V77.263C111.531 74.1859 114.442 71.7741 118.101 70.0277C121.76 68.1981 125.877 67.2832 130.451 67.2832ZM200.163 138.639C194.092 138.639 188.687 137.599 183.946 135.52C179.206 133.441 175.464 130.613 172.719 127.037C169.975 123.378 168.436 119.303 168.103 114.812H189.186C189.435 117.224 190.558 119.178 192.554 120.675C194.55 122.172 197.003 122.921 199.914 122.921C202.575 122.921 204.613 122.422 206.027 121.424C207.524 120.342 208.272 118.97 208.272 117.307C208.272 115.311 207.233 113.856 205.153 112.941C203.074 111.943 199.706 110.862 195.049 109.697C190.059 108.533 185.901 107.327 182.574 106.08C179.248 104.749 176.378 102.711 173.967 99.967C171.555 97.1394 170.349 93.3554 170.349 88.615C170.349 84.6231 171.43 81.0055 173.592 77.762C175.838 74.4354 179.081 71.8157 183.323 69.9029C187.647 67.9901 192.762 67.0337 198.667 67.0337C207.399 67.0337 214.26 69.196 219.25 73.5206C224.323 77.8452 227.234 83.5836 227.982 90.7357H208.272C207.939 88.324 206.858 86.4112 205.029 84.9974C203.282 83.5836 200.954 82.8767 198.043 82.8767C195.548 82.8767 193.635 83.3757 192.304 84.3736C190.974 85.2884 190.308 86.5775 190.308 88.2408C190.308 90.2368 191.348 91.7337 193.427 92.7317C195.589 93.7297 198.916 94.7277 203.407 95.7256C208.563 97.0563 212.763 98.3869 216.006 99.7176C219.25 100.965 222.077 103.044 224.489 105.955C226.984 108.783 228.273 112.608 228.356 117.432C228.356 121.507 227.192 125.166 224.863 128.409C222.618 131.57 219.333 134.065 215.008 135.894C210.767 137.724 205.819 138.639 200.163 138.639ZM236.916 102.836C236.916 95.6009 238.372 89.2804 241.282 83.8746C244.276 78.4689 248.393 74.3107 253.632 71.3999C258.955 68.4891 265.026 67.0337 271.845 67.0337C280.578 67.0337 287.855 69.3208 293.676 73.8949C299.581 78.4689 303.448 84.9142 305.278 93.2307H282.574C280.661 87.9081 276.96 85.2469 271.471 85.2469C267.562 85.2469 264.444 86.7854 262.115 89.8625C259.787 92.8565 258.622 97.181 258.622 102.836C258.622 108.491 259.787 112.858 262.115 115.935C264.444 118.929 267.562 120.426 271.471 120.426C276.96 120.426 280.661 117.764 282.574 112.442H305.278C303.448 120.592 299.581 126.996 293.676 131.653C287.772 136.31 280.495 138.639 271.845 138.639C265.026 138.639 258.955 137.183 253.632 134.273C248.393 131.362 244.276 127.204 241.282 121.798C238.372 116.392 236.916 110.072 236.916 102.836ZM337.771 79.6332C340.265 75.8076 343.384 72.8137 347.127 70.6514C350.869 68.406 355.027 67.2832 359.601 67.2832V89.8625H353.738C348.416 89.8625 344.424 91.0268 341.762 93.3554C339.101 95.6009 337.771 99.5928 337.771 105.331V137.641H316.439V68.0317H337.771V79.6332ZM380.276 60.7964C376.534 60.7964 373.457 59.7152 371.045 57.553C368.716 55.3075 367.552 52.5631 367.552 49.3196C367.552 45.993 368.716 43.2486 371.045 41.0863C373.457 38.8408 376.534 37.7181 380.276 37.7181C383.935 37.7181 386.929 38.8408 389.258 41.0863C391.67 43.2486 392.876 45.993 392.876 49.3196C392.876 52.5631 391.67 55.3075 389.258 57.553C386.929 59.7152 383.935 60.7964 380.276 60.7964ZM390.88 68.0317V137.641H369.548V68.0317H390.88ZM427.421 77.8868C429.417 74.6433 432.286 72.0236 436.029 70.0277C439.771 68.0317 444.054 67.0337 448.878 67.0337C454.616 67.0337 459.814 68.4891 464.471 71.3999C469.128 74.3107 472.787 78.4689 475.449 83.8746C478.193 89.2804 479.565 95.5593 479.565 102.711C479.565 109.864 478.193 116.184 475.449 121.673C472.787 127.079 469.128 131.279 464.471 134.273C459.814 137.183 454.616 138.639 448.878 138.639C443.971 138.639 439.688 137.682 436.029 135.77C432.369 133.774 429.5 131.154 427.421 127.91V137.641H406.089V45.3277H427.421V77.8868ZM457.859 102.711C457.859 97.3889 456.362 93.2307 453.368 90.2368C450.458 87.1597 446.84 85.6211 442.515 85.6211C438.274 85.6211 434.656 87.1597 431.662 90.2368C428.752 93.3139 427.296 97.5137 427.296 102.836C427.296 108.159 428.752 112.359 431.662 115.436C434.656 118.513 438.274 120.051 442.515 120.051C446.757 120.051 450.374 118.513 453.368 115.436C456.362 112.275 457.859 108.034 457.859 102.711ZM556.124 101.714C556.124 103.709 555.999 105.789 555.75 107.951H507.473C507.805 112.275 509.178 115.602 511.589 117.931C514.084 120.176 517.12 121.299 520.696 121.299C526.018 121.299 529.719 119.053 531.798 114.562H554.502C553.338 119.137 551.217 123.253 548.14 126.912C545.146 130.572 541.362 133.441 536.788 135.52C532.214 137.599 527.1 138.639 521.444 138.639C514.625 138.639 508.554 137.183 503.231 134.273C497.909 131.362 493.751 127.204 490.757 121.798C487.763 116.392 486.266 110.072 486.266 102.836C486.266 95.6009 487.721 89.2804 490.632 83.8746C493.626 78.4689 497.784 74.3107 503.107 71.3999C508.429 68.4891 514.542 67.0337 521.444 67.0337C528.181 67.0337 534.169 68.4476 539.408 71.2752C544.647 74.1028 548.722 78.1363 551.633 83.3757C554.627 88.615 556.124 94.7277 556.124 101.714ZM534.293 96.0999C534.293 92.4406 533.046 89.5299 530.551 87.3676C528.056 85.2053 524.937 84.1241 521.195 84.1241C517.619 84.1241 514.583 85.1637 512.088 87.2428C509.677 89.3219 508.18 92.2743 507.597 96.0999H534.293Z"/><defs><linearGradient id="paint0_linear_14_110" x1=".549" x2="144.541" y1="182.832" y2="-56.563" gradientUnits="userSpaceOnUse"><stop stop-color="#3761F4"/><stop offset="1" stop-color="#FF3FF7"/></linearGradient></defs></svg>