<svg width="451" height="451" viewBox="0 0 451 451" fill="none" xmlns="http://www.w3.org/2000/svg">
<rect width="450.175" height="450.175" rx="225.088" fill="white"/>
<rect width="450.175" height="450.175" rx="225.088" fill="url(#paint0_linear_19_2)"/>
<rect width="450.175" height="450.175" rx="225.088" fill="url(#paint1_linear_19_2)"/>
<circle cx="225.079" cy="224.386" r="210" stroke="white" stroke-width="5"/>
<path d="M345.55 251.375H318.65V278.25H328.065C330.293 278.25 332.1 279.762 332.1 281.609V288.328C332.1 290.176 330.293 291.688 328.065 291.688H120.935C118.707 291.688 116.9 290.176 116.9 288.328V281.609C116.9 279.762 118.707 278.25 120.935 278.25H130.35V251.375H103.45C96.0105 251.375 90 257.38 90 264.812V305.125C90 312.558 96.0105 318.562 103.45 318.562H345.55C352.99 318.562 359 312.558 359 305.125V264.812C359 257.38 352.99 251.375 345.55 251.375ZM305.2 278.25V144.001C305.2 136.484 299.105 130.438 291.624 130.438H157.418C149.895 130.438 143.8 136.526 143.8 144.001V278.25H305.2ZM178.77 201.824L189.488 191.2C191.253 189.437 194.111 189.437 195.877 191.242L213.236 208.711L253.249 169.07C255.015 167.307 257.873 167.307 259.638 169.112L270.272 179.82C272.037 181.584 272.037 184.439 270.23 186.203L216.304 239.617C214.539 241.381 211.68 241.381 209.915 239.575L178.77 208.207C176.963 206.443 177.005 203.588 178.77 201.824V201.824Z" fill="white"/>
<rect x="0.451983" y="0.451983" width="449.271" height="449.271" rx="224.636" stroke="black" stroke-opacity="0.1" stroke-width="0.903966"/>
<defs>
<linearGradient id="paint0_linear_19_2" x1="-184.854" y1="356.513" x2="29.9314" y2="-177.904" gradientUnits="userSpaceOnUse">
<stop stop-color="#3177E0"/>
<stop offset="0.990913" stop-color="#3FA3EB"/>
</linearGradient>
<linearGradient id="paint1_linear_19_2" x1="-42.0732" y1="377.6" x2="227.572" y2="-303.484" gradientUnits="userSpaceOnUse">
<stop stop-color="#3138E0"/>
<stop offset="1" stop-color="#EF39FF"/>
</linearGradient>
</defs>
</svg>
